<svg xmlns="http://www.w3.org/2000/svg" width="48" height="48" fill="none" viewBox="0 0 48 48">
  <path fill="url(#gold-glow)" d="M24 2C13.5 5.5 8 13.5 8 23c0 10.5 7.5 17.5 16 21 8.5-3.5 16-10.5 16-21 0-9.5-5.5-17.5-16-21z" opacity="0.4" filter="url(#glow-filter)" />
  <path fill="url(#gold-metallic)" stroke="url(#gold-stroke)" stroke-width="2.5" d="M24 4C14.5 7.2 9.5 14.5 9.5 23c0 9.5 6.8 15.8 14.5 19 7.7-3.2 14.5-9.5 14.5-19 0-8.5-5-15.8-14.5-19z" />
  <path stroke="url(#gold-inner-stroke)" stroke-width="1.2" fill="none" d="M24 7c-7.5 2.5-11.5 8-11.5 16 0 7.5 5.3 12.5 11.5 15 6.2-2.5 11.5-7.5 11.5-15 0-8-4-13.5-11.5-16z" opacity="0.6" />
  <circle cx="24" cy="23" r="8.5" fill="rgba(0,0,0,0.4)" stroke="url(#cyan-glow)" stroke-width="2" />
  <circle cx="24" cy="23" r="5" fill="none" stroke="#00f2fe" stroke-width="1.5" filter="url(#cyan-blur)" />
  <path stroke="url(#cyan-glow)" stroke-width="1.2" stroke-linecap="round" d="M20 18l3.5 1.5M28 18l-3.5 1.5M18 25l2-3.5M30 25l-2-3.5M24 29.5V26" />
  <defs>
    <filter id="glow-filter" width="130%" height="130%" x="-15%" y="-15%">
      <feGaussianBlur stdDeviation="3" result="blur" />
    </filter>
    <filter id="cyan-blur" width="150%" height="150%" x="-25%" y="-25%">
      <feGaussianBlur stdDeviation="1.5" />
    </filter>
    <linearGradient id="gold-metallic" x1="8" y1="2" x2="40" y2="44" gradientUnits="userSpaceOnUse">
      <stop offset="0%" stop-color="#FFF0A5" />
      <stop offset="35%" stop-color="#D4AF37" />
      <stop offset="70%" stop-color="#AA7C11" />
      <stop offset="100%" stop-color="#F3E5AB" />
    </linearGradient>
    <linearGradient id="gold-stroke" x1="8" y1="2" x2="40" y2="44" gradientUnits="userSpaceOnUse">
      <stop offset="0%" stop-color="#FFF" />
      <stop offset="50%" stop-color="#D4AF37" />
      <stop offset="100%" stop-color="#5A3E00" />
    </linearGradient>
    <linearGradient id="gold-inner-stroke" x1="12" y1="7" x2="36" y2="39" gradientUnits="userSpaceOnUse">
      <stop offset="0%" stop-color="#FFF" stop-opacity="0.8" />
      <stop offset="100%" stop-color="#D4AF37" stop-opacity="0.2" />
    </linearGradient>
    <radialGradient id="gold-glow" cx="24" cy="23" r="21" gradientUnits="userSpaceOnUse">
      <stop offset="0%" stop-color="#FFD700" stop-opacity="0.6" />
      <stop offset="100%" stop-color="#FFD700" stop-opacity="0" />
    </radialGradient>
    <linearGradient id="cyan-glow" x1="15.5" y1="14.5" x2="32.5" y2="31.5" gradientUnits="userSpaceOnUse">
      <stop offset="0%" stop-color="#00f2fe" />
      <stop offset="100%" stop-color="#4f46e5" />
    </linearGradient>
  </defs>
</svg>
