<svg xmlns="http://www.w3.org/2000/svg" width="48" height="48" fill="none" viewBox="0 0 48 48">
  <path fill="url(#plat-glow)" d="M24 2C13.5 5.5 8 13.5 8 23c0 10.5 7.5 17.5 16 21 8.5-3.5 16-10.5 16-21 0-9.5-5.5-17.5-16-21z" opacity="0.25" filter="url(#plat-blur-filter)" />
  <path fill="url(#plat-metallic)" stroke="url(#plat-stroke)" stroke-width="2" d="M38 18C34 10 27 6 24 6c-8 0-14 6-17 14 0 0 10-6 17-6 6 0 10.5 4.5 10.5 9.5S30 33 24 33c-4.5 0-8.5-2.5-10.5-6.5C15.5 32 20.5 35 25 35c7.5 0 13-5 13-12 0-2 0-3.5 0-5z" />
  <circle cx="20" cy="22" r="2" fill="#00f2fe" />
  <circle cx="28" cy="25" r="2" fill="#00f2fe" />
  <circle cx="24" cy="16" r="1.5" fill="#00f2fe" />
  <path stroke="#00f2fe" stroke-width="0.8" stroke-dasharray="1 1" d="M20 22l4-6M28 25l-4-9M20 22l8 3" />
  <defs>
    <filter id="plat-blur-filter" width="130%" height="130%" x="-15%" y="-15%">
      <feGaussianBlur stdDeviation="4" />
    </filter>
    <linearGradient id="plat-metallic" x1="10" y1="6" x2="38" y2="35" gradientUnits="userSpaceOnUse">
      <stop offset="0%" stop-color="#FFFFFF" />
      <stop offset="40%" stop-color="#E2E8F0" />
      <stop offset="75%" stop-color="#94A3B8" />
      <stop offset="100%" stop-color="#CBD5E1" />
    </linearGradient>
    <linearGradient id="plat-stroke" x1="10" y1="6" x2="38" y2="35" gradientUnits="userSpaceOnUse">
      <stop offset="0%" stop-color="#FFFFFF" />
      <stop offset="100%" stop-color="#475569" />
    </linearGradient>
    <radialGradient id="plat-glow" cx="24" cy="23" r="20" gradientUnits="userSpaceOnUse">
      <stop offset="0%" stop-color="#00f2fe" stop-opacity="0.5" />
      <stop offset="100%" stop-color="#00f2fe" stop-opacity="0" />
    </radialGradient>
  </defs>
</svg>
